<svg width="51" height="49" viewBox="0 0 51 49" fill="none" xmlns="http://www.w3.org/2000/svg">
<path d="M16.7049 4.55247L16.3309 7.15523L4.47767 18.1197C4.0278 18.4953 3.69155 18.989 3.50667 19.5451C3.43528 19.7527 3.38417 19.9667 3.35406 20.1841V21.0394C3.80854 21.0763 4.33345 21.0394 4.90532 20.9119L42.4104 10.1521C42.5352 10.1163 42.6666 10.1099 42.7942 10.1335C42.9218 10.157 43.0423 10.2099 43.146 10.288C43.2497 10.366 43.3339 10.4671 43.3919 10.5832C43.4499 10.6993 43.4802 10.8273 43.4804 10.9571V19.0839C43.4812 19.2639 43.4239 19.4394 43.3169 19.5841C43.2099 19.7289 43.059 19.8352 42.8867 19.8872C35.709 22.0506 7.17434 30.6488 6.47334 30.8383C5.6801 31.0563 3.92425 31.385 3.35406 31.3112V36.5687C3.86556 36.6391 4.39717 36.619 4.90532 36.4831L42.4088 25.6244C42.5336 25.5882 42.6652 25.5816 42.793 25.6051C42.9209 25.6285 43.0415 25.6813 43.1455 25.7594C43.2494 25.8375 43.3338 25.9386 43.3919 26.0549C43.45 26.1712 43.4803 26.2994 43.4804 26.4293V34.2309L44.7449 33.8687L44.7566 33.8653L44.827 33.8418C45.2376 33.7066 45.6328 33.5284 46.006 33.3102C46.7657 32.8574 46.8344 32.5505 46.8344 32.5119V10.6703C46.8344 10.3047 46.6835 9.65736 46.2861 9.03182C45.9138 8.44486 45.3855 7.97026 44.6929 7.74051L30.8456 4.49378C30.7844 3.94133 30.6097 3.40748 30.3325 2.92575C29.992 2.25326 29.3212 1.33257 28.6739 0.541016L45.523 4.49042C45.5625 4.50015 45.6017 4.51134 45.6404 4.52396C47.2587 5.02707 48.3974 6.10037 49.1169 7.23405C49.8212 8.34089 50.1885 9.60369 50.1885 10.6703V32.5119C50.1885 34.4908 48.6071 35.6648 47.7182 36.193C47.0958 36.5596 46.4336 36.8539 45.7444 37.0701L45.7008 37.0835L45.6857 37.0869L45.6806 37.0886C45.6806 37.0886 45.4358 37.159 45.6773 37.0886L4.74432 48.8378C4.72043 48.8445 4.69639 48.8507 4.67221 48.8563C3.47649 49.1414 2.11809 49.0659 1.1169 48.0429C0.219691 47.1273 0 45.8209 0 44.6553V20.112L0.00167711 20.0214V19.9963L0.00670824 19.9594C0.0167112 19.8097 0.0351882 19.6608 0.0620502 19.5133C0.109007 19.2416 0.191182 18.8743 0.335406 18.4534C0.704246 17.364 1.35524 16.3919 2.22207 15.636L17.9794 1.06257C17.9435 1.11404 17.9082 1.16603 17.8738 1.21854C17.1091 2.40252 16.876 3.63849 16.7619 4.2439L16.7552 4.28415C16.7394 4.37376 16.7226 4.46321 16.7049 4.55247Z" fill="#474747"/>
</svg>
