<svg width="158" height="31" viewBox="0 0 158 31" fill="none" xmlns="http://www.w3.org/2000/svg">
<path d="M108.048 6.22287V24.729H106.484V6.22287H108.048ZM116.665 14.7387V16.086H107.527V14.7387H116.665ZM117.949 6.22287V7.57016H107.527V6.22287H117.949Z" fill="#2C2F24"/>
<path d="M118.706 18.0688V17.6494C118.706 16.6495 118.85 15.7259 119.138 14.8785C119.426 14.0312 119.837 13.2982 120.371 12.6797C120.913 12.0611 121.561 11.5824 122.315 11.2434C123.069 10.896 123.908 10.7223 124.832 10.7223C125.764 10.7223 126.607 10.896 127.361 11.2434C128.115 11.5824 128.764 12.0611 129.306 12.6797C129.848 13.2982 130.263 14.0312 130.552 14.8785C130.84 15.7259 130.984 16.6495 130.984 17.6494V18.0688C130.984 19.0687 130.84 19.9923 130.552 20.8396C130.263 21.6785 129.848 22.4072 129.306 23.0258C128.772 23.6444 128.128 24.1273 127.374 24.4748C126.62 24.8137 125.781 24.9832 124.857 24.9832C123.925 24.9832 123.082 24.8137 122.328 24.4748C121.574 24.1273 120.926 23.6444 120.383 23.0258C119.841 22.4072 119.426 21.6785 119.138 20.8396C118.85 19.9923 118.706 19.0687 118.706 18.0688ZM120.218 17.6494V18.0688C120.218 18.8229 120.32 19.539 120.523 20.2168C120.727 20.8862 121.023 21.4836 121.413 22.009C121.803 22.5259 122.286 22.9326 122.862 23.2292C123.438 23.5257 124.103 23.674 124.857 23.674C125.603 23.674 126.26 23.5257 126.827 23.2292C127.404 22.9326 127.887 22.5259 128.276 22.009C128.666 21.4836 128.959 20.8862 129.153 20.2168C129.357 19.539 129.458 18.8229 129.458 18.0688V17.6494C129.458 16.9037 129.357 16.1962 129.153 15.5268C128.959 14.8574 128.662 14.26 128.264 13.7346C127.874 13.2093 127.391 12.7941 126.815 12.489C126.239 12.184 125.578 12.0314 124.832 12.0314C124.086 12.0314 123.425 12.184 122.849 12.489C122.281 12.7941 121.798 13.2093 121.4 13.7346C121.01 14.26 120.714 14.8574 120.51 15.5268C120.316 16.1962 120.218 16.9037 120.218 17.6494Z" fill="#2C2F24"/>
<path d="M132.35 18.0688V17.6494C132.35 16.6495 132.494 15.7259 132.783 14.8785C133.071 14.0312 133.482 13.2982 134.015 12.6797C134.558 12.0611 135.206 11.5824 135.96 11.2434C136.714 10.896 137.553 10.7223 138.477 10.7223C139.409 10.7223 140.252 10.896 141.006 11.2434C141.76 11.5824 142.408 12.0611 142.951 12.6797C143.493 13.2982 143.908 14.0312 144.196 14.8785C144.484 15.7259 144.628 16.6495 144.628 17.6494V18.0688C144.628 19.0687 144.484 19.9923 144.196 20.8396C143.908 21.6785 143.493 22.4072 142.951 23.0258C142.417 23.6444 141.773 24.1273 141.019 24.4748C140.265 24.8137 139.426 24.9832 138.502 24.9832C137.57 24.9832 136.727 24.8137 135.973 24.4748C135.219 24.1273 134.57 23.6444 134.028 23.0258C133.486 22.4072 133.071 21.6785 132.783 20.8396C132.494 19.9923 132.35 19.0687 132.35 18.0688ZM133.863 17.6494V18.0688C133.863 18.8229 133.965 19.539 134.168 20.2168C134.371 20.8862 134.668 21.4836 135.058 22.009C135.447 22.5259 135.93 22.9326 136.507 23.2292C137.083 23.5257 137.748 23.674 138.502 23.674C139.248 23.674 139.904 23.5257 140.472 23.2292C141.048 22.9326 141.531 22.5259 141.921 22.009C142.311 21.4836 142.603 20.8862 142.798 20.2168C143.002 19.539 143.103 18.8229 143.103 18.0688V17.6494C143.103 16.9037 143.002 16.1962 142.798 15.5268C142.603 14.8574 142.307 14.26 141.908 13.7346C141.519 13.2093 141.036 12.7941 140.46 12.489C139.883 12.184 139.222 12.0314 138.477 12.0314C137.731 12.0314 137.07 12.184 136.494 12.489C135.926 12.7941 135.443 13.2093 135.045 13.7346C134.655 14.26 134.359 14.8574 134.155 15.5268C133.96 16.1962 133.863 16.9037 133.863 17.6494Z" fill="#2C2F24"/>
<path d="M155.769 22.0598V5.20605H157.295V24.729H155.871L155.769 22.0598ZM146.224 17.9925V17.7256C146.224 16.658 146.347 15.6962 146.593 14.8404C146.838 13.9761 147.19 13.2389 147.647 12.6288C148.114 12.0103 148.673 11.54 149.325 11.218C149.978 10.8875 150.715 10.7223 151.537 10.7223C152.342 10.7223 153.054 10.8536 153.672 11.1163C154.291 11.379 154.82 11.7561 155.261 12.2475C155.71 12.739 156.07 13.3237 156.341 14.0015C156.621 14.6794 156.824 15.4336 156.951 16.264V19.6576C156.85 20.4371 156.663 21.1532 156.392 21.8056C156.121 22.4496 155.761 23.0131 155.312 23.4961C154.863 23.9706 154.32 24.3392 153.685 24.6019C153.058 24.8561 152.333 24.9832 151.511 24.9832C150.698 24.9832 149.965 24.8137 149.313 24.4748C148.66 24.1358 148.105 23.6571 147.647 23.0385C147.19 22.4115 146.838 21.67 146.593 20.8142C146.347 19.9584 146.224 19.0178 146.224 17.9925ZM147.749 17.7256V17.9925C147.749 18.7975 147.83 19.5432 147.991 20.2295C148.152 20.9159 148.397 21.5133 148.728 22.0217C149.058 22.5301 149.478 22.9284 149.986 23.2164C150.495 23.5045 151.096 23.6486 151.791 23.6486C152.664 23.6486 153.397 23.4834 153.99 23.1529C154.583 22.814 155.058 22.3691 155.413 21.8183C155.769 21.2591 156.028 20.649 156.189 19.9881V16.0352C156.087 15.5861 155.939 15.1285 155.744 14.6625C155.549 14.1964 155.282 13.7685 154.943 13.3787C154.613 12.9805 154.189 12.6627 153.672 12.4255C153.164 12.1797 152.545 12.0569 151.816 12.0569C151.113 12.0569 150.507 12.2009 149.999 12.489C149.49 12.7771 149.067 13.1796 148.728 13.6965C148.397 14.2049 148.152 14.8023 147.991 15.4886C147.83 16.175 147.749 16.9206 147.749 17.7256Z" fill="#2C2F24"/>
<path d="M47.1758 6.10419H52.9187C58.6982 6.10419 63.292 9.65872 63.292 15.6526C63.292 22.1851 59.344 25.5239 52.9187 25.5239H47.1758V6.10419ZM49.9394 23.0832H52.8468C57.621 23.0832 60.2774 20.7863 60.2774 15.7598C60.2774 11.2379 57.1895 8.54488 53.1697 8.54488H49.9027V23.0832H49.9394ZM69.7539 8.15008H66.8099V5.20605H69.7539V8.15008ZM66.9537 11.3451H69.5748V25.5605H66.9537V11.3451ZM74.4562 6.10419H80.1991C85.9786 6.10419 90.5737 9.65872 90.5737 15.6526C90.5737 22.1851 86.6257 25.5239 80.1991 25.5239H74.4562V6.10419ZM77.2564 23.0832H80.1638C84.938 23.0832 87.5944 20.7863 87.5944 15.7598C87.5944 11.2379 84.5066 8.54488 80.4853 8.54488H77.2198V23.0832H77.2564ZM97.0343 8.15008H94.0903V5.20605H97.0343V8.15008ZM94.2707 11.3451H96.8905V25.5605H94.2707V11.3451Z" fill="#2C2F24"/>
<path fill-rule="evenodd" clip-rule="evenodd" d="M18.953 23.8357C25.4136 23.62 30.512 18.4876 30.5826 12.1329V6.64237H37.6903V12.7095C37.5465 22.5808 28.9668 30.3329 18.953 30.55C8.75746 30.4767 0.107179 22.6513 0 12.7068V1.83153C0 0.719047 0.717691 0 1.79355 0H30.5826V6.64237H8.00449C7.42926 6.64237 7.07109 7.00189 7.07109 7.57577V12.0271C7.14299 18.4524 12.3486 23.7638 18.953 23.8357Z" fill="#FC9153"/>
</svg>
