<svg width="40" height="50" viewBox="0 0 40 50" fill="none" xmlns="http://www.w3.org/2000/svg">
<path fill-rule="evenodd" clip-rule="evenodd" d="M34.4153 1.17023e-08C35.1182 0.000303338 35.813 0.148777 36.4546 0.435735C37.0962 0.722693 37.6701 1.14169 38.1388 1.66539C38.6076 2.18909 38.9606 2.80572 39.175 3.47507C39.3893 4.14442 39.4602 4.85143 39.3828 5.55L34.9403 45.55C34.8049 46.7734 34.223 47.9039 33.306 48.725C32.3889 49.5461 31.2013 50.0001 29.9703 50H9.44534C8.21443 50.0001 7.02675 49.5461 6.10971 48.725C5.19268 47.9039 4.61074 46.7734 4.47534 45.55L0.0303426 5.55C-0.0469921 4.85122 0.0239051 4.14399 0.238407 3.47447C0.452909 2.80495 0.806192 2.1882 1.2752 1.66446C1.7442 1.14072 2.31839 0.721774 2.96027 0.43497C3.60215 0.148167 4.2973 -4.80856e-05 5.00034 1.17023e-08H34.4153ZM34.4153 5H5.00034L6.06284 14.5575C6.96037 14.3865 7.86815 14.2746 8.78034 14.2225C11.7778 14.0475 15.9203 14.4075 20.6928 16.4525C24.6703 18.1575 28.0278 18.4225 30.3428 18.285C31.2313 18.2378 32.1139 18.1123 32.9803 17.91L34.4153 5ZM32.4028 23.1C31.8728 23.175 31.2803 23.24 30.6353 23.275C27.6378 23.4525 23.4953 23.0925 18.7228 21.05C14.7453 19.3425 11.3878 19.0775 9.07284 19.215C8.24684 19.2605 7.42585 19.3726 6.61784 19.55L9.44534 45H29.9703L32.4028 23.1ZM17.2078 27.5C17.2078 28.163 16.9444 28.7989 16.4756 29.2678C16.0068 29.7366 15.3709 30 14.7078 30C14.0448 30 13.4089 29.7366 12.9401 29.2678C12.4712 28.7989 12.2078 28.163 12.2078 27.5C12.2078 26.837 12.4712 26.2011 12.9401 25.7322C13.4089 25.2634 14.0448 25 14.7078 25C15.3709 25 16.0068 25.2634 16.4756 25.7322C16.9444 26.2011 17.2078 26.837 17.2078 27.5ZM22.2078 37.5C22.8709 37.5 23.5068 37.2366 23.9756 36.7678C24.4444 36.2989 24.7078 35.663 24.7078 35C24.7078 34.337 24.4444 33.7011 23.9756 33.2322C23.5068 32.7634 22.8709 32.5 22.2078 32.5C21.5448 32.5 20.9089 32.7634 20.4401 33.2322C19.9712 33.7011 19.7078 34.337 19.7078 35C19.7078 35.663 19.9712 36.2989 20.4401 36.7678C20.9089 37.2366 21.5448 37.5 22.2078 37.5Z" fill="#474747"/>
</svg>
