<svg width="53" height="50" viewBox="0 0 53 50" fill="none" xmlns="http://www.w3.org/2000/svg">
<path d="M13.1414 43.8498V47.3717C13.1414 48.0688 13.4183 48.7373 13.9112 49.2302C14.4041 49.7231 15.0726 50 15.7697 50H36.796C37.4931 50 38.1616 49.7231 38.6545 49.2302C39.1474 48.7373 39.4243 48.0688 39.4243 47.3717V43.8498C43.4197 41.5431 46.7375 38.2253 49.0443 34.2299C51.3511 30.2345 52.5656 25.7024 52.5657 21.0889C52.5657 20.3918 52.2888 19.7233 51.7959 19.2304C51.303 18.7375 50.6345 18.4606 49.9374 18.4606C49.8893 16.8514 49.429 15.2814 48.6007 13.9009C47.7724 12.5204 46.6038 11.3755 45.2065 10.5757C44.8715 8.28633 43.7224 6.19441 41.9701 4.68345C40.2178 3.1725 37.9796 2.34377 35.6658 2.3492C34.7786 2.34767 33.8949 2.46254 33.0375 2.69087C31.2285 0.96371 28.8235 0 26.3223 0C23.8211 0 21.4161 0.96371 19.607 2.69087C18.7496 2.46254 17.866 2.34767 16.9787 2.3492C14.6559 2.33107 12.405 3.15405 10.6417 4.66615C8.87839 6.17825 7.72178 8.27733 7.38548 10.5757C5.98333 11.3722 4.80941 12.5157 3.97637 13.8964C3.14332 15.2771 2.67911 16.8488 2.62828 18.4606C1.93122 18.4606 1.26271 18.7375 0.769807 19.2304C0.276908 19.7233 0 20.3918 0 21.0889C0.000117201 25.7024 1.2146 30.2345 3.5214 34.2299C5.8282 38.2253 9.14602 41.5431 13.1414 43.8498ZM10.8023 14.9387L12.9837 14.2553L12.5632 11.8899C12.5701 11.3238 12.6884 10.7646 12.9113 10.2443C13.1343 9.72397 13.4576 9.25265 13.8628 8.85727C14.2679 8.46188 14.747 8.15018 15.2726 7.93995C15.7982 7.72973 16.3601 7.6251 16.9262 7.63205C17.6852 7.6277 18.4339 7.80811 19.1076 8.15771L21.2365 9.34043L22.5507 7.31666C22.9617 6.7041 23.5171 6.20212 24.168 5.85501C24.8189 5.50791 25.5452 5.32634 26.2828 5.32634C27.0205 5.32634 27.7468 5.50791 28.3977 5.85501C29.0486 6.20212 29.604 6.7041 30.015 7.31666L31.3292 9.34043L33.4581 8.15771C34.1318 7.80811 34.8805 7.6277 35.6395 7.63205C36.7764 7.61775 37.8733 8.05044 38.6942 8.83696C39.5152 9.62348 39.9944 10.7009 40.0288 11.8373L39.6083 14.0713L41.7634 14.8073C42.5585 15.0561 43.261 15.5368 43.7808 16.1878C44.3007 16.8387 44.6141 17.6302 44.6808 18.4606H7.88485C7.95162 17.6302 8.26503 16.8387 8.78487 16.1878C9.3047 15.5368 10.0072 15.0561 10.8023 14.8073V14.9387ZM47.1514 23.7172C46.7129 27.1582 45.4299 30.4372 43.4167 33.2621C41.4036 36.087 38.7228 38.3699 35.6133 39.9074C35.1758 40.1278 34.8087 40.4661 34.5533 40.884C34.2978 41.302 34.1643 41.783 34.1677 42.2728V44.7434H18.398V42.2728C18.4014 41.783 18.2679 41.302 18.0124 40.884C17.757 40.4661 17.3899 40.1278 16.9524 39.9074C13.8429 38.3699 11.1621 36.087 9.14895 33.2621C7.13577 30.4372 5.85276 27.1582 5.41427 23.7172H47.1514Z" fill="#474747"/>
</svg>
