<svg width="16" height="16" viewBox="0 0 16 16" fill="none" xmlns="http://www.w3.org/2000/svg">
<path d="M1.88379 1.88385H3.13962L3.39079 3.13968M4.39546 8.16302H10.6746L13.1863 3.13968H3.39079M4.39546 8.16302L3.39079 3.13968M4.39546 8.16302L2.95571 9.60276C2.56014 9.99833 2.8403 10.6747 3.39971 10.6747H10.6746M10.6746 10.6747C9.98104 10.6747 9.41879 11.2369 9.41879 11.9305C9.41879 12.6241 9.98104 13.1863 10.6746 13.1863C11.3682 13.1863 11.9305 12.6241 11.9305 11.9305C11.9305 11.2369 11.3682 10.6747 10.6746 10.6747ZM5.65129 11.9305C5.65129 12.6241 5.08903 13.1863 4.39546 13.1863C3.70188 13.1863 3.13962 12.6241 3.13962 11.9305C3.13962 11.2369 3.70188 10.6747 4.39546 10.6747C5.08903 10.6747 5.65129 11.2369 5.65129 11.9305Z" stroke="white" stroke-width="1.5" stroke-linecap="round" stroke-linejoin="round"/>
</svg>
