<svg width="16" height="16" viewBox="0 0 16 16" fill="none" xmlns="http://www.w3.org/2000/svg">
<path d="M1.25 2.75C1.25 1.92157 1.92157 1.25 2.75 1.25H5.20943C5.53225 1.25 5.81886 1.45657 5.92094 1.76283L7.0443 5.13291C7.16233 5.48699 7.00203 5.87398 6.6682 6.0409L4.97525 6.88737C5.80194 8.72091 7.27909 10.1981 9.11263 11.0247L9.9591 9.3318C10.126 8.99796 10.513 8.83767 10.8671 8.9557L14.2372 10.0791C14.5434 10.1811 14.75 10.4677 14.75 10.7906V13.25C14.75 14.0784 14.0784 14.75 13.25 14.75H12.5C6.2868 14.75 1.25 9.7132 1.25 3.5V2.75Z" stroke="white" stroke-width="1.5" stroke-linecap="round" stroke-linejoin="round"/>
</svg>
